<svg width="22" height="17" viewBox="0 0 22 17" fill="none" xmlns="http://www.w3.org/2000/svg">
<path d="M12 8H19V9.5H12V8ZM12 5.5H19V7H12V5.5ZM12 10.5H19V12H12V10.5ZM20 0H2C0.9 0 0 0.9 0 2V15C0 16.1 0.9 17 2 17H20C21.1 17 22 16.1 22 15V2C22 0.9 21.1 0 20 0ZM20 15H11V2H20V15Z" fill="url(#paint0_linear)"/>
<defs>
<linearGradient id="paint0_linear" x1="-19.3706" y1="-2.49505" x2="-8.16532" y2="32.8397" gradientUnits="userSpaceOnUse">
<stop stop-color="#5D89F0"/>
<stop offset="1" stop-color="#4C55D9"/>
</linearGradient>
</defs>
</svg>
